<mxfile host="app.diagrams.net" modified="2024-07-12T23:37:54.348Z" agent="Mozilla/5.0 (Macintosh; Intel Mac OS X 10_15_7) AppleWebKit/605.1.15 (KHTML, like Gecko) Version/17.5 Safari/605.1.15" version="24.6.5" etag="sNknRvrR7c8apjYmtQDc" type="github">
  <diagram name="Page-1" id="BX-lDgu-tsfrLY1_vtGf">
    <mxGraphModel>
      <root>
        <mxCell id="0" />
        <mxCell id="1" parent="0" />
      </root>
    </mxGraphModel>
  </diagram>
</mxfile>
